<?xml version="1.0" encoding="UTF-8" standalone="no"?>
<svg id="svg18" xmlns="http://www.w3.org/2000/svg" height="256" width="256" version="1.1" viewBox="0 0 67.717854 67.737637">
 <rect id="rect2" style="color-rendering:auto;color:#000000;isolation:auto;mix-blend-mode:normal;shape-rendering:auto;solid-color:#000000;image-rendering:auto;fill:#86dfff" height="67.74" width="67.74" y="-.00000169" x="-.009893"/>
 <path id="path4" style="opacity:.1;fill:#333;fill-rule:evenodd" d="m-0.009893 67.74 67.74-67.74v67.74z"/>
 <path id="path2" d="m19.46 48.49v5.904h5.535v-11.39zm1.548 0.6568 2.392-2.346v5.932h-2.392zm11.54 1.126-5.489-5.348v9.476h5.535zm-1.548 2.476h-2.4v-4.13l2.392 2.346zm9.195-8.293-5.535 5.395v4.543h5.535zm-1.595 8.293h-2.392v-2.195l2.392-2.346zm3.659-10.45v12.11h5.535v-17.61zm1.595 0.7037 2.392-2.392v12.14h-2.392zm4.034-8.725v-1.689l-14.5 14.5-8.069-8.069-5.911 5.911-1.126-1.126 7.037-7.037 8.069 8.069 13.32-13.32h-1.548v-1.548h4.269v4.269h-1.548z" style="fill:#006a97"/>
 <path id="path4870" d="m33.86 26.79c-2.341 0-4.231 1.89-4.231 4.231s1.89 4.232 4.231 4.232 4.231-1.89 4.231-4.232c0-2.341-1.89-4.231-4.231-4.231zm-0.6583 2.229h0.9121c0.09403 0 0.1787 0.000108 0.2633 0.0095 0.08463 0.0094 0.1881 0.02799 0.301 0.0468 0.1128 0.02821 0.2351 0.07535 0.3573 0.1412 0.1222 0.06582 0.2255 0.1504 0.3101 0.2538 0.06582 0.08463 0.1226 0.1694 0.1602 0.2728h0.6864l-0.2165 0.3478h-0.3854c-0.0094 0.06582-0.0095 0.1224-0.0095 0.1788 0 0.08463-0.0092 0.1598-0.01864 0.2256h0.6111l-0.2161 0.3478h-0.4798c-0.06582 0.1693-0.169 0.3195-0.3006 0.4418-0.1316 0.1222-0.2918 0.2165-0.4798 0.2823-0.1881 0.06582-0.4137 0.1035-0.6864 0.1035h-0.47v1.54c0 0.01881-0.0092 0.03778-0.01864 0.04718-0.0094 0.0094-0.01887 0.01875-0.03767 0.02816-0.01881 0.0094-0.04686 0.01902-0.08447 0.01902s-0.08475 0.0091-0.1412 0.0091c-0.05642 0-0.1036 0.000323-0.1412-0.0091-0.03761-0.0094-0.06567-0.0096-0.08447-0.01902-0.01881-0.0094-0.03778-0.01875-0.04718-0.02816-0.0094-0.0094-0.0091-0.02838-0.0091-0.04718v-2.36h-0.9406l0.2165-0.3482h0.7332v-0.4h-0.9402l0.2165-0.3482h0.7332v-0.4889c0-0.08463 0.01881-0.1504 0.06583-0.188 0.04702-0.03761 0.09399-0.05631 0.1598-0.05631zm0.3196 0.4699v0.2633h1.269c-0.03761-0.05642-0.09377-0.1034-0.1408-0.1317-0.09403-0.05642-0.1975-0.09382-0.301-0.1126-0.1034-0.01881-0.2069-0.01902-0.301-0.01902zm0 0.6115v0.4041h1.448c0.0094-0.05642 0.01865-0.1221 0.01865-0.188 0-0.07522-0.0092-0.1503-0.01865-0.2161zm0 0.7427v0.3573h0.508c0.1693 0 0.3104-0.01881 0.4326-0.06583 0.1128-0.04702 0.2067-0.1033 0.282-0.188 0.02821-0.02821 0.05626-0.06589 0.08447-0.1035z" style="stroke-width:.09403;fill:#006a97"/>
 <path id="path4863" style="stroke:#006a97;stroke-width:1.697;fill:none" d="m58.46 32.03-24.59-17.65-24.62 17.47"/>
</svg>
